#!OML:ASF E:\acrobat2\Project_11_07_03\Capture day 1\Session 1\Acrobat.ASF
:FULLY-SPECIFIED
:DEGREES
75
root 10.6589 18.0735 -38.5287 5.91292 -4.17109 -1.00893
lowerback -7.63141 -0.212201 -0.425044
upperback -1.13386 -0.229034 -0.579408
thorax 3.10549 -0.11648 -0.382485
lowerneck 1.85324 -7.23428 -4.26348
upperneck 1.87891 -9.88489 8.76525
head 0.991275 -4.95391 3.4904
rclavicle 1.31105e-014 1.47101e-014
rhumerus -39.0952 1.8136 -86.8128
rradius 27.7288
rwrist 4.53096
rhand 2.03537 -46.6118
rfingers 7.12502
rthumb 27.5384 -74.6176
lclavicle 1.31105e-014 1.47101e-014
lhumerus -32.7508 -16.534 94.484
lradius 20.7269
lwrist 10.2628
lhand -10.7263 -9.93748
lfingers 7.12502
lthumb 15.2842 19.4778
rfemur 2.12279 8.40911 21.2511
rtibia 1.68981
rfoot -20.2902 -19.9858
rtoes 7.69266
lfemur -0.958434 -0.0053246 -16.7229
ltibia 4.13288
lfoot -7.18081 -4.72561
ltoes 31.4041
76
root 10.6604 18.0738 -38.5266 5.90134 -4.16885 -0.95316
lowerback -7.61916 -0.218786 -0.473057
upperback -1.15881 -0.233671 -0.594258
thorax 3.07298 -0.119232 -0.371157
lowerneck 1.80181 -7.12296 -4.21133
upperneck 1.97166 -9.73784 8.69996
head 1.0126 -4.8776 3.45808
rclavicle -1.06676e-014 -1.51076e-014
rhumerus -39.1102 1.82776 -86.8015
rradius 27.7795
rwrist 4.5335
rhand 2.06999 -46.6914
rfingers 7.12502
rthumb 27.5715 -74.6919
lclavicle -1.06676e-014 -1.51076e-014
lhumerus -32.7552 -16.6301 94.4513
lradius 20.7659
lwrist 10.2942
lhand -10.7406 -10.0746
lfingers 7.12502
lthumb 15.2704 19.3417
rfemur 2.1376 8.40484 21.179
rtibia 1.69562
rfoot -20.3109 -19.9721
rtoes 7.82161
lfemur -0.931596 -0.0140394 -16.8024
ltibia 4.11802
lfoot -7.19442 -4.7261
ltoes 31.4345
77
root 10.6618 18.074 -38.5245 5.89614 -4.17296 -0.889388
lowerback -7.62154 -0.224651 -0.531032
upperback -1.17929 -0.236336 -0.610893
thorax 3.0533 -0.121092 -0.355958
lowerneck 1.7697 -7.01504 -4.16745
upperneck 2.02649 -9.59384 8.65275
head 1.02025 -4.80388 3.43494
rclavicle 9.32191e-015 -1.86858e-014
rhumerus -39.1183 1.85115 -86.7933
rradius 27.8326
rwrist 4.53805
rhand 2.11201 -46.7559
rfingers 7.12502
rthumb 27.6117 -74.75
lclavicle 9.32191e-015 -1.86858e-014
lhumerus -32.7556 -16.7271 94.4073
lradius 20.823
lwrist 10.349
lhand -10.7566 -10.183
lfingers 7.12502
lthumb 15.2549 19.2345
rfemur 2.14231 8.41149 21.0956
rtibia 1.70069
rfoot -20.3258 -19.9655
rtoes 7.93066
lfemur -0.918916 -0.0088002 -16.8904
ltibia 4.11144
lfoot -7.20601 -4.73143
ltoes 31.4531
78
root 10.6629 18.0739 -38.5225 5.89954 -4.17677 -0.829176
lowerback -7.6401 -0.233142 -0.591846
upperback -1.19297 -0.242215 -0.622417
thorax 3.0497 -0.124604 -0.334318
lowerneck 1.74212 -6.91011 -4.13453
upperneck 2.04836 -9.4522 8.61524
head 1.01796 -4.73202 3.41782
rclavicle -5.0824e-015 -2.38542e-015
rhumerus -39.1153 1.89196 -86.7868
rradius 27.8894
rwrist 4.5348
rhand 2.14792 -46.7907
rfingers 7.12502
rthumb 27.646 -74.7793
lclavicle -5.0824e-015 -2.38542e-015
lhumerus -32.7413 -16.7892 94.3424
lradius 20.8934
lwrist 10.3992
lhand -10.7696 -10.2224
lfingers 7.12502
lthumb 15.2425 19.196
rfemur 2.13798 8.42844 21.0178
rtibia 1.71203
rfoot -20.3564 -19.9595
rtoes 8.05938
lfemur -0.923462 0.00935088 -16.9698
ltibia 4.11845
lfoot -7.20567 -4.75092
ltoes 31.4929
79
root 10.6636 18.0736 -38.5204 5.91133 -4.17298 -0.78188
lowerback -7.66365 -0.236822 -0.640772
upperback -1.20711 -0.242575 -0.634617
thorax 3.04837 -0.125239 -0.319522
lowerneck 1.7234 -6.8179 -4.09138
upperneck 2.03799 -9.3256 8.579
head 1.00443 -4.6683 3.39983
rclavicle -1.12925e-014 6.36111e-015
rhumerus -39.1115 1.90859 -86.7774
rradius 27.9421
rwrist 4.52746
rhand 2.1637 -46.7963
rfingers 7.12502
rthumb 27.6611 -74.7825
lclavicle -1.12925e-014 6.36111e-015
lhumerus -32.7256 -16.8531 94.2694
lradius 20.971
lwrist 10.4445
lhand -10.8275 -10.1946
lfingers 7.12502
lthumb 15.1867 19.2281
rfemur 2.12832 8.44356 20.9583
rtibia 1.71068
rfoot -20.3622 -19.9811
rtoes 8.04434
lfemur -0.943668 0.0339595 -17.0284
ltibia 4.13699
lfoot -7.19117 -4.78484
ltoes 31.5369
